HIERARCHY
ROOT Hips
{
 OFFSET 0.000000 0.000000 0.000000
 CHANNELS 6 Xposition Yposition Zposition Yrotation Xrotation Zrotation
 JOINT Chest
 {
  OFFSET 0.000000 9.581000 -0.001100
  CHANNELS 3 Yrotation Xrotation Zrotation
  JOINT Chest2
  {
   OFFSET 0.000000 9.561100 0.002200
   CHANNELS 3 Yrotation Xrotation Zrotation
   JOINT Chest3
   {
    OFFSET 0.000000 9.521100 0.000000
    CHANNELS 3 Yrotation Xrotation Zrotation
    JOINT Chest4
    {
     OFFSET 0.000000 9.511400 0.000000
     CHANNELS 3 Yrotation Xrotation Zrotation
     JOINT Neck
     {
      OFFSET 0.000000 14.375100 0.000000
      CHANNELS 3 Yrotation Xrotation Zrotation
      JOINT Head
      {
       OFFSET 0.000000 8.901200 0.004600
       CHANNELS 3 Yrotation Xrotation Zrotation
       End Site
       {
        OFFSET 0.000000 16.962200 0.002400
       }
      }
     }
     JOINT RightCollar
     {
      OFFSET -2.920100 9.518800 0.000000
      CHANNELS 3 Yrotation Xrotation Zrotation
      JOINT RightShoulder
      {
       OFFSET -13.664500 0.000000 0.000000
       CHANNELS 3 Yrotation Xrotation Zrotation
       JOINT RightElbow
       {
        OFFSET 0.000000 -29.999200 0.000000
        CHANNELS 3 Yrotation Xrotation Zrotation
        JOINT RightWrist
        {
         OFFSET 0.000000 -24.253600 0.000000
         CHANNELS 3 Yrotation Xrotation Zrotation
         End Site
         {
          OFFSET 0.000000 -17.918900 0.000000
         }
        }
       }
      }
     }
     JOINT LeftCollar
     {
      OFFSET 2.920100 9.518800 0.000000
      CHANNELS 3 Yrotation Xrotation Zrotation
      JOINT LeftShoulder
      {
       OFFSET 13.664500 0.000000 0.000000
       CHANNELS 3 Yrotation Xrotation Zrotation
       JOINT LeftElbow
       {
        OFFSET 0.000000 -29.999200 0.000000
        CHANNELS 3 Yrotation Xrotation Zrotation
        JOINT LeftWrist
        {
         OFFSET 0.000000 -24.253600 0.000000
         CHANNELS 3 Yrotation Xrotation Zrotation
         End Site
         {
          OFFSET 0.000000 -17.918900 0.000000
         }
        }
       }
      }
     }
    }
   }
  }
 }
 JOINT RightHip
 {
  OFFSET -7.797300 0.005300 0.000500
  CHANNELS 3 Yrotation Xrotation Zrotation
  JOINT RightKnee
  {
   OFFSET 0.000000 -40.663400 -0.000500
   CHANNELS 3 Yrotation Xrotation Zrotation
   JOINT RightAnkle
   {
    OFFSET 0.000000 -39.523700 -0.000900
    CHANNELS 3 Yrotation Xrotation Zrotation
    JOINT RightToe
    {
     OFFSET 0.000000 -6.418000 14.485300
     CHANNELS 3 Yrotation Xrotation Zrotation
     End Site
     {
      OFFSET 0.000000 -1.465200 6.326400
     }
    }
   }
  }
 }
 JOINT LeftHip
 {
  OFFSET 7.797300 0.005300 0.000500
  CHANNELS 3 Yrotation Xrotation Zrotation
  JOINT LeftKnee
  {
   OFFSET 0.000000 -40.663400 -0.000500
   CHANNELS 3 Yrotation Xrotation Zrotation
   JOINT LeftAnkle
   {
    OFFSET 0.000000 -39.523700 -0.000900
    CHANNELS 3 Yrotation Xrotation Zrotation
    JOINT LeftToe
    {
     OFFSET 0.000000 -6.418000 14.485300
     CHANNELS 3 Yrotation Xrotation Zrotation
     End Site
     {
      OFFSET 0.000000 -1.465200 6.326400
     }
    }
   }
  }
 }
}
MOTION
Frames: 8
Frame Time: 0.008333
-12.717405 126.887727 -4.282679 -170.678048 -46.455624 -4.756914 -0.503855 26.039308 1.760958 -0.137723 4.307705 0.299348 -0.241651 6.846083 0.464682 -0.486589 21.408357 1.440441 2.935543 17.154698 0.946456 2.903937 -7.727188 0.313855 1.214899 1.717389 2.367559 6.601223 -10.499042 -13.509986 -83.726753 -56.438873 137.751803 -0.948834 7.449717 -5.329266 -9.439295 -1.862483 -0.357878 -10.486561 -10.165257 11.501813 62.530660 -52.595373 -110.731301 -1.150137 -7.653465 -8.316116 -10.636441 -11.954319 -10.029906 -167.732159 75.217184 -171.841420 22.441014 22.921618 -7.134114 -0.001942 0.002033 -0.000860 12.546459 -15.037995 -8.285058 9.350583 70.389158 -3.015416 1.451692 -10.514816 11.861935 -0.000450 -0.002052 -0.000200
-12.715810 126.887704 -4.282335 -170.673238 -46.455616 -4.750206 -0.498199 26.042142 1.760492 -0.130279 4.311009 0.301157 -0.206374 6.860095 0.472522 -0.459436 21.419644 1.440728 2.894961 17.096190 0.960837 2.882666 -7.739397 0.324402 1.171155 1.674017 2.389030 6.579038 -10.480129 -13.509738 -83.703333 -56.430388 137.740857 -0.932624 7.438749 -5.343067 -9.512951 -1.895668 -0.326357 -10.467442 -10.155567 11.488563 62.500861 -52.594408 -110.679717 -1.147408 -7.656677 -8.338014 -10.628893 -11.955919 -10.031283 -167.709827 75.209413 -171.814695 22.440771 22.918531 -7.137143 -0.000573 0.000938 -0.000254 12.545741 -15.033229 -8.292645 9.353165 70.387811 -3.017570 1.449746 -10.516800 11.868094 -0.000732 -0.001890 -0.000324
-12.716615 126.887960 -4.282117 -170.664242 -46.458982 -4.732564 -0.503151 26.048743 1.742989 -0.135538 4.309928 0.299222 -0.205433 6.860927 0.472547 -0.439377 21.427892 1.440467 2.917703 17.036095 0.946790 2.859616 -7.788073 0.334567 1.173141 1.653979 2.396482 6.555365 -10.469435 -13.507293 -83.660730 -56.422914 137.715207 -0.936827 7.437770 -5.349854 -9.532219 -1.909739 -0.311432 -10.445467 -10.148424 11.473786 62.476523 -52.599870 -110.663618 -1.137598 -7.656734 -8.330089 -10.628718 -11.957265 -10.054811 -167.712508 75.204984 -171.818404 22.442937 22.921739 -7.144121 -0.001121 0.000002 -0.000497 12.546359 -15.020398 -8.315067 9.341960 70.383226 -3.031988 1.451289 -10.515784 11.875465 -0.000502 -0.002261 -0.000222
-12.715574 126.888234 -4.282010 -170.659347 -46.461970 -4.722986 -0.480819 26.056344 1.748341 -0.143873 4.311213 0.296447 -0.202065 6.864112 0.472330 -0.424390 21.428119 1.444080 2.917205 16.983140 0.938569 2.852182 -7.849944 0.330998 1.153706 1.636914 2.409707 6.551524 -10.448882 -13.508351 -83.641536 -56.416076 137.703599 -0.936161 7.433782 -5.360159 -9.540501 -1.923429 -0.286555 -10.445331 -10.143076 11.451357 62.451720 -52.599405 -110.640532 -1.131376 -7.657008 -8.326689 -10.627409 -11.957567 -10.065903 -167.714390 75.201327 -171.820011 22.444423 22.926082 -7.146432 -0.001763 -0.000416 -0.000781 12.544836 -15.010582 -8.326850 9.334806 70.379350 -3.041242 1.452362 -10.516940 11.880617 -0.000893 -0.000921 -0.000396
-12.714939 126.888263 -4.281671 -170.653997 -46.463042 -4.710927 -0.480836 26.058057 1.738231 -0.131287 4.313686 0.299201 -0.198612 6.866592 0.472371 -0.401626 21.432995 1.448486 2.902448 16.933235 0.934073 2.846171 -7.901227 0.324474 1.151787 1.599432 2.416154 6.522153 -10.409936 -13.498628 -83.628880 -56.406742 137.691551 -0.927180 7.433081 -5.357795 -9.579950 -1.934372 -0.268302 -10.437537 -10.139950 11.440721 62.435630 -52.595477 -110.616065 -1.125249 -7.659717 -8.322108 -10.625501 -11.959785 -10.073799 -167.748097 75.193931 -171.857804 22.435184 22.922148 -7.143994 -0.001826 0.001114 -0.000809 12.542017 -15.002056 -8.336282 9.309461 70.375347 -3.075809 1.453173 -10.516627 11.890168 -0.001019 -0.000661 -0.000452
-12.713899 126.888305 -4.281394 -170.648263 -46.463747 -4.701221 -0.464181 26.061770 1.744090 -0.129292 4.314577 0.299048 -0.195449 6.868004 0.472581 -0.394664 21.436326 1.450173 2.897134 16.883610 0.923396 2.842425 -7.955041 0.314261 1.137360 1.576354 2.422633 6.521138 -10.381730 -13.490441 -83.620296 -56.402843 137.677239 -0.961936 7.446220 -5.347959 -9.611047 -1.944282 -0.253771 -10.422638 -10.131725 11.430115 62.429004 -52.600350 -110.624471 -1.113453 -7.661895 -8.302645 -10.624267 -11.960731 -10.080576 -167.735220 75.187971 -171.847219 22.435771 22.919986 -7.144892 -0.001518 0.001144 -0.000673 12.523362 -14.995026 -8.329680 9.249629 70.371736 -3.168532 1.458455 -10.517857 11.906316 -0.000143 -0.000728 -0.000063
-12.712780 126.888358 -4.281167 -170.639705 -46.463925 -4.693521 -0.430691 26.068547 1.764463 -0.151785 4.310256 0.289584 -0.162273 6.879747 0.480590 -0.430833 21.426108 1.446441 2.910444 16.839135 0.905305 2.842586 -8.010430 0.301115 1.140945 1.559696 2.425223 6.523222 -10.354987 -13.480689 -83.638220 -56.408564 137.678398 -0.983240 7.450373 -5.349455 -9.621153 -1.950033 -0.239138 -10.399495 -10.122167 11.415512 62.405875 -52.596158 -110.614457 -1.110334 -7.666966 -8.303685 -10.630594 -11.960341 -10.086244 -167.701820 75.184100 -171.820151 22.437452 22.916538 -7.145001 -0.000180 0.000697 -0.000080 12.516112 -14.989715 -8.337113 9.217304 70.372093 -3.210985 1.464320 -10.520488 11.912513 -0.000369 -0.001032 -0.000163
-12.711647 126.888398 -4.280973 -170.633841 -46.463615 -4.683340 -0.419434 26.073212 1.766025 -0.143856 4.312645 0.293380 -0.166102 6.881195 0.476654 -0.437139 21.422764 1.446733 2.925424 16.793839 0.884748 2.848232 -8.066918 0.285140 1.147054 1.544700 2.425624 6.513829 -10.335333 -13.465910 -83.644787 -56.415409 137.675722 -1.009855 7.452153 -5.353231 -9.624960 -1.957746 -0.221148 -10.391812 -10.117038 11.401195 62.353838 -52.572420 -110.552839 -1.122758 -7.684150 -8.324854 -10.637740 -11.961884 -10.097367 -167.685602 75.182107 -171.810420 22.439823 22.915191 -7.143362 -0.000264 -0.000192 -0.000117 12.510528 -14.984330 -8.344097 9.182779 70.372672 -3.257329 1.467414 -10.524225 11.921171 -0.000900 -0.001588 -0.000399
